<svg xmlns="http://www.w3.org/2000/svg" viewBox="0 0 1920 345.59"><defs><style>.cls-1{fill:none;stroke:#e8382f;stroke-miterlimit:10;stroke-width:10px;}</style></defs><title>자산 17</title><g id="레이어_2" data-name="레이어 2"><g id="레이어_1-2" data-name="레이어 1"><path class="cls-1" d="M1920,340.59H1740A26.58,26.58,0,0,1,1713.44,314h0a37,37,0,0,0-37-37H1514.36a37,37,0,0,1-37-37h0a37,37,0,0,0-37-37H937.74a29.61,29.61,0,0,1-29.61-29.6h0a29.61,29.61,0,0,0-29.6-29.61H162.37a34.65,34.65,0,0,1-34.65-34.65h0a34.66,34.66,0,0,1,34.65-34.65h40.42a34.72,34.72,0,0,0,34.73-34.72h0A34.73,34.73,0,0,0,202.79,5H0"/></g></g></svg>