<svg xmlns="http://www.w3.org/2000/svg" viewBox="0 0 1151.01 383.26"><defs><style>.cls-1{fill:#e8382f;}.cls-2,.cls-3{fill:#fff;}.cls-3{opacity:0.5;}.cls-4{fill:#003548;}</style></defs><title>logo_back</title><g id="레이어_2" data-name="레이어 2"><g id="레이어_1-2" data-name="레이어 1"><rect class="cls-1" width="1151.01" height="383.26"/><path class="cls-1" d="M499.92,367.32q-22.1,8.1-44.15,15.94h82.41l7-2.57A190.73,190.73,0,0,1,499.92,367.32Z"/><path class="cls-1" d="M539.46,383.26h37.06A192.67,192.67,0,0,1,546,380.83Z"/><path class="cls-1" d="M0,192c160.11-45.81,316.6-116,478.24-192h-67.1C272.81,65.16,137.64,124.39,0,165.82Z"/><path class="cls-1" d="M0,165.36C137.29,124,272.13,65,410.1,0H343.74C228.53,53.92,115.05,102.58,0,138.94Z"/><path class="cls-1" d="M0,218.49C153.22,176.93,302.88,112.86,456.57,42.2A190.66,190.66,0,0,1,540,3.49L547.49,0H479.27C317.28,76.25,160.46,146.59,0,192.49Z"/><path class="cls-1" d="M576.52,0h-28l-6.76,3.15A193.19,193.19,0,0,1,576.52,0Z"/><path class="cls-1" d="M790.76,383.26h85.88c89.56-32.61,180.74-64.93,274.37-94V256.53c-123.85,38.65-243.23,83.12-360.19,126.7Z"/><path class="cls-1" d="M385,198.68c-128,52-254.9,96.39-385,124v25c131.4-26,259.29-69.26,388.23-120.38A191.57,191.57,0,0,1,385,198.68Z"/><path class="cls-1" d="M388.32,227.78C259.35,278.91,131.44,322.14,0,348.16V373c134.08-24.63,264.33-67.28,395.55-118.21A189.59,189.59,0,0,1,388.32,227.78Z"/><path class="cls-1" d="M467.24,349q-48.57,17.88-97,34.22h84.23q22.43-8,44.89-16.2A191,191,0,0,1,467.24,349Z"/><path class="cls-1" d="M395.7,255.18C264.43,306.12,134.14,348.78,0,373.42v9.84H75.73c111.61-24.59,221-60.69,331.06-102.62A190.43,190.43,0,0,1,395.7,255.18Z"/><path class="cls-1" d="M759.8,135.52C873.5,88,990.17,41,1112.72,0h-95.06C925.34,33.93,836.18,70.66,748.82,107.68A191.31,191.31,0,0,1,759.8,135.52Z"/><path class="cls-1" d="M407,281c-109.45,41.7-218.26,77.64-329.24,102.23H183.87C263.64,361.58,342.68,334.79,422,305A191.86,191.86,0,0,1,407,281Z"/><path class="cls-1" d="M442.07,328.15c-53.71,19.92-107.26,38.5-161,55.11h87.76q48.95-16.41,98-34.53A191.78,191.78,0,0,1,442.07,328.15Z"/><path class="cls-1" d="M422.31,305.38C343.42,335,264.86,361.64,185.57,383.26h94c54.11-16.69,108-35.39,162.13-55.45A192.86,192.86,0,0,1,422.31,305.38Z"/><path class="cls-1" d="M384.89,191.63a193.63,193.63,0,0,1,1.51-24.11c-128.71,53.64-256,100-386.4,129.56v25.19c130.13-27.65,257-72.07,385-124.06C385,196,384.89,193.83,384.89,191.63Z"/><path class="cls-1" d="M725.45,312.21a191.26,191.26,0,0,1-148.93,71.05h44.75c46.33-17.34,93.12-35.33,140.91-53.71C888,281.15,1016.64,231.69,1151,189.41v-33c-139.64,44.12-272.85,96.14-403,147Z"/><path class="cls-1" d="M768.15,191.63q0,3-.11,6.07c123.3-50.17,249.82-100.15,383-142.61V21.78c-134,42.84-261,93.36-384.56,144.31A193.79,193.79,0,0,1,768.15,191.63Z"/><path class="cls-1" d="M751.78,269.22c128.8-51.08,260.71-102.89,399.23-146.79V89.26C1016.56,132,888.6,182.34,763.77,232.49A190.43,190.43,0,0,1,751.78,269.22Z"/><path class="cls-1" d="M733,81C796.79,53.5,861.57,26.2,927.88,0H846.14Q778.67,28.16,713,57.07A193.31,193.31,0,0,1,733,81Z"/><path class="cls-1" d="M766.39,165.64C890,114.68,1017,64.16,1151,21.32V0h-36.9C991.1,41.09,874,88.28,759.92,136A190.47,190.47,0,0,1,766.39,165.64Z"/><path class="cls-1" d="M726,311.52,747.81,303c130.24-50.87,263.5-102.91,403.2-147V122.89c-138.6,43.94-270.59,95.79-399.48,146.9A191.72,191.72,0,0,1,726,311.52Z"/><path class="cls-1" d="M748.62,107.28C835.64,70.4,924.45,33.82,1016.39,0H929.08C862.44,26.31,797.34,53.74,733.23,81.33A191.82,191.82,0,0,1,748.62,107.28Z"/><path class="cls-1" d="M622.52,383.26h82.2q35.55-13.38,71.74-27.1c121.42-46,245.45-92.92,374.55-133.38V189.87C1016.7,232.14,888.12,281.58,762.34,330,714.93,348.19,668.5,366.05,622.52,383.26Z"/><path class="cls-1" d="M654.43,16.51Q672.69,8.26,691,0H619.32l-7.2,3.31A190.29,190.29,0,0,1,654.43,16.51Z"/><path class="cls-1" d="M712.62,56.73Q778,28.14,845,0H767.49q-40.35,17.57-80.14,35.28A192.54,192.54,0,0,1,712.62,56.73Z"/><path class="cls-1" d="M706,383.26H789.5l1.16-.44c117-43.6,236.44-88.09,360.35-126.75V223.24c-129,40.45-253,87.38-374.39,133.33Q741,370.07,706,383.26Z"/><path class="cls-1" d="M618.27,0H576.52a192.4,192.4,0,0,1,34.85,3.17Z"/><path class="cls-1" d="M763.88,232C888.67,181.83,1016.6,131.54,1151,88.8V55.56C1017.86,98,891.33,148,768,198.18A191.64,191.64,0,0,1,763.88,232Z"/><path class="cls-1" d="M393.88,133.52C262.41,189.91,132.74,239.17,0,271.24v25.39C130.43,267,257.73,220.68,386.46,167A190.41,190.41,0,0,1,393.88,133.52Z"/><path class="cls-1" d="M686.93,35q39.45-17.55,79.46-35H692.12Q673.49,8.37,655,16.75A190.78,190.78,0,0,1,686.93,35Z"/><path class="cls-1" d="M0,138.48C114.7,102.22,227.84,53.74,342.7,0H276.76C184.11,42.78,92.55,81.26,0,111.89Z"/><path class="cls-1" d="M1063.56,383.26Q1107,369,1151,355.39V322.83c-61.7,19.06-122.37,39.49-182.26,60.43Z"/><path class="cls-1" d="M73.52,0Q36.79,15.35,0,29.24V56.53c47.11-17,94-36,141-56.53Z"/><path class="cls-1" d="M3.2,0,0,1.26V28.77Q36.24,15.12,72.38,0Z"/><path class="cls-1" d="M967.42,383.26c60.31-21.11,121.43-41.7,183.59-60.89V289.73c-93.18,28.93-183.93,61.07-273.08,93.53Z"/><path class="cls-1" d="M0,0V.79L2,0Z"/><path class="cls-1" d="M455.17,43.33C302,113.72,152.77,177.52,0,219v25.79C138.43,209.24,273.74,155.2,411.49,94.2A192.4,192.4,0,0,1,455.17,43.33Z"/><path class="cls-1" d="M142.1,0C94.76,20.67,47.48,39.84,0,57V84.08C69.75,59.94,139,31.4,208.62,0Z"/><path class="cls-1" d="M411.11,94.85C273.5,155.78,138.31,209.74,0,245.2v25.59C132.79,238.69,262.52,189.4,394.06,133A190.14,190.14,0,0,1,411.11,94.85Z"/><path class="cls-1" d="M0,111.43C92.2,80.9,183.42,42.59,275.72,0h-66C139.7,31.58,70.11,60.28,0,84.54Z"/><path class="cls-1" d="M1151,383.26V355.85q-43.34,13.31-86,27.41Z"/><path class="cls-2" d="M2,0,0,.79v.47L3.2,0Z"/><path class="cls-3" d="M72.38,0Q36.22,15.09,0,28.77v.47Q36.81,15.38,73.52,0Z"/><path class="cls-3" d="M141,0C94,20.49,47.11,39.5,0,56.53V57C47.48,39.84,94.76,20.67,142.1,0Z"/><path class="cls-3" d="M209.69,0h-1.07C139,31.4,69.75,59.94,0,84.08v.46C70.11,60.28,139.7,31.58,209.69,0Z"/><path class="cls-3" d="M0,111.89C92.55,81.26,184.11,42.78,276.76,0h-1C183.42,42.59,92.2,80.9,0,111.43Z"/><path class="cls-3" d="M0,138.94C115.05,102.58,228.53,53.92,343.74,0h-1C227.84,53.74,114.7,102.22,0,138.48Z"/><path class="cls-3" d="M0,165.82C137.64,124.39,272.81,65.16,411.14,0h-1C272.13,65,137.29,124,0,165.36Z"/><path class="cls-3" d="M0,192.49C160.46,146.59,317.28,76.25,479.27,0h-1C316.6,76.07,160.11,146.22,0,192Z"/><path class="cls-3" d="M541.77,3.15,548.53,0h-1L540,3.49Z"/><path class="cls-3" d="M456.57,42.2C302.88,112.86,153.22,176.93,0,218.49V219C152.77,177.52,302,113.72,455.17,43.33Z"/><path class="cls-3" d="M612.12,3.31,619.32,0h-1.05l-6.9,3.17Z"/><path class="cls-3" d="M411.49,94.2C273.74,155.2,138.43,209.24,0,244.74v.46c138.31-35.46,273.5-89.42,411.11-150.35C411.24,94.63,411.36,94.41,411.49,94.2Z"/><path class="cls-3" d="M655,16.75Q673.5,8.37,692.12,0H691q-18.36,8.25-36.61,16.51Z"/><path class="cls-3" d="M394.06,133C262.52,189.4,132.79,238.69,0,270.79v.45c132.74-32.07,262.41-81.33,393.88-137.72C393.93,133.33,394,133.14,394.06,133Z"/><path class="cls-3" d="M386.46,167C257.73,220.68,130.43,267,0,296.63v.45c130.41-29.6,257.69-75.92,386.4-129.56Z"/><path class="cls-3" d="M687.35,35.28Q727.15,17.6,767.49,0h-1.1q-40,17.42-79.46,35Z"/><path class="cls-3" d="M713,57.07Q778.76,28.3,846.14,0H845Q777.95,28,712.62,56.73Z"/><path class="cls-3" d="M385,198.21c-128,52-254.89,96.41-385,124.06v.45c130.14-27.65,257-72.06,385-124C385,198.52,385,198.36,385,198.21Z"/><path class="cls-3" d="M388.23,227.34C259.29,278.46,131.4,321.69,0,347.72v.44c131.44-26,259.35-69.25,388.32-120.38Z"/><path class="cls-3" d="M733.23,81.33C797.34,53.74,862.44,26.31,929.08,0h-1.2C861.57,26.2,796.79,53.5,733,81Z"/><path class="cls-3" d="M748.82,107.68C836.18,70.66,925.34,33.93,1017.66,0h-1.27C924.45,33.82,835.64,70.4,748.62,107.28,748.69,107.41,748.75,107.54,748.82,107.68Z"/><path class="cls-3" d="M395.55,254.76C264.33,305.69,134.08,348.34,0,373v.45c134.14-24.64,264.43-67.3,395.7-118.24Z"/><path class="cls-3" d="M406.79,280.64c-110,41.93-219.45,78-331.06,102.62h2C188.74,358.67,297.55,322.73,407,281Z"/><path class="cls-3" d="M759.92,136C874,88.28,991.1,41.09,1114.11,0h-1.39C990.17,41,873.5,88,759.8,135.52Z"/><path class="cls-3" d="M766.45,166.09C890.05,115.14,1017.05,64.62,1151,21.78v-.46c-134,42.84-261,93.36-384.62,144.32Z"/><path class="cls-3" d="M422,305c-79.36,29.78-158.4,56.57-238.17,78.25h1.7c79.29-21.62,157.85-48.27,236.74-77.88Z"/><path class="cls-3" d="M768,198.18C891.33,148,1017.86,98,1151,55.56v-.47C1017.86,97.55,891.34,147.53,768,197.7,768,197.86,768,198,768,198.18Z"/><path class="cls-3" d="M441.72,327.81c-54.09,20.06-108,38.76-162.13,55.45h1.49c53.73-16.61,107.28-35.19,161-55.11Z"/><path class="cls-3" d="M466.79,348.73q-49,18-98,34.53h1.38Q418.7,367,467.24,349Z"/><path class="cls-3" d="M763.77,232.49C888.6,182.34,1016.56,132,1151,89.26V88.8c-134.41,42.74-262.34,93-387.13,143.17C763.84,232.15,763.81,232.32,763.77,232.49Z"/><path class="cls-3" d="M499.34,367.06q-22.47,8.25-44.89,16.2h1.32q22.07-7.83,44.15-15.94Z"/><path class="cls-3" d="M751.53,269.79c128.89-51.11,260.88-103,399.48-146.9v-.46c-138.52,43.9-270.43,95.71-399.23,146.79C751.69,269.41,751.61,269.6,751.53,269.79Z"/><path class="cls-2" d="M545.16,380.69l-7,2.57h1.28l6.58-2.43Z"/><path class="cls-3" d="M726,311.52l-.55.69,22.52-8.8c130.19-50.85,263.4-102.87,403-147V156c-139.7,44.13-273,96.17-403.2,147Z"/><path class="cls-3" d="M621.27,383.26h1.25c46-17.21,92.41-35.07,139.82-53.3C888.12,281.58,1016.7,232.14,1151,189.87v-.46c-134.37,42.28-263,91.74-388.83,140.14C714.39,347.93,667.6,365.92,621.27,383.26Z"/><path class="cls-3" d="M704.72,383.26H706q35-13.18,70.65-26.69C898,310.62,1022,263.69,1151,223.24v-.46c-129.1,40.46-253.13,87.41-374.55,133.38Q740.25,369.87,704.72,383.26Z"/><path class="cls-3" d="M789.5,383.26h1.26l.06,0c117-43.58,236.34-88.05,360.19-126.7v-.46c-123.91,38.66-243.34,83.15-360.35,126.75Z"/><path class="cls-3" d="M877.93,383.26c89.15-32.46,179.9-64.6,273.08-93.53v-.46c-93.63,29.06-184.81,61.38-274.37,94Z"/><path class="cls-3" d="M968.75,383.26c59.89-20.94,120.56-41.37,182.26-60.43v-.46c-62.16,19.19-123.28,39.78-183.59,60.89Z"/><path class="cls-3" d="M1065,383.26q42.72-14.06,86-27.41v-.46q-44,13.53-87.45,27.87Z"/><path class="cls-4" d="M540,3.49A190.66,190.66,0,0,0,456.57,42.2l-1.4,1.13A192.4,192.4,0,0,0,411.49,94.2c-.13.21-.25.43-.38.65A190.14,190.14,0,0,0,394.06,133c-.06.18-.13.37-.18.56A190.41,190.41,0,0,0,386.46,167l-.06.51a193.63,193.63,0,0,0-1.51,24.11c0,2.2.06,4.39.13,6.58,0,.15,0,.31,0,.47a191.57,191.57,0,0,0,3.19,28.66l.09.44a189.59,189.59,0,0,0,7.23,27l.15.42a190.43,190.43,0,0,0,11.09,25.46l.21.39a191.86,191.86,0,0,0,15,24l.27.37a192.86,192.86,0,0,0,19.41,22.43l.35.34a191.78,191.78,0,0,0,24.72,20.58l.45.31a191,191,0,0,0,32.1,18l.58.26a190.73,190.73,0,0,0,45.24,13.37l.88.14a191.72,191.72,0,0,0,179.41-68.62l.55-.69a191.72,191.72,0,0,0,25.53-41.73c.08-.19.16-.38.25-.57a190.43,190.43,0,0,0,12-36.73c0-.17.07-.34.11-.52A191.64,191.64,0,0,0,768,198.18c0-.16,0-.32,0-.48q.11-3,.11-6.07a193.79,193.79,0,0,0-1.7-25.54l-.06-.45A190.47,190.47,0,0,0,759.92,136l-.12-.43a191.31,191.31,0,0,0-11-27.84c-.07-.14-.13-.27-.2-.4a191.82,191.82,0,0,0-15.39-25.95L733,81a193.31,193.31,0,0,0-20-23.89l-.33-.34a192.54,192.54,0,0,0-25.27-21.45l-.42-.29a190.78,190.78,0,0,0-32-18.24l-.54-.24a190.29,190.29,0,0,0-42.31-13.2l-.75-.14a193.2,193.2,0,0,0-69.6,0Z"/></g></g></svg>