<svg xmlns="http://www.w3.org/2000/svg" viewBox="0 0 476.65 173.77"><defs><style>.cls-1{fill:#003548;}</style></defs><title>logo_1</title><g id="레이어_2" data-name="레이어 2"><g id="레이어_1-2" data-name="레이어 1"><path class="cls-1" d="M3.85,80.75A3.85,3.85,0,0,1,0,76.9V3.85A3.85,3.85,0,0,1,3.85,0H42.94a3.85,3.85,0,0,1,3.85,3.85V38.14A3.85,3.85,0,0,1,42.94,42H19.71a3.85,3.85,0,0,1-3.85-3.85V20.9a3.85,3.85,0,0,1,3.85-3.85h9.68a3.85,3.85,0,1,1,0,7.7H23.55v9.54H39.1V7.7H7.69V76.9A3.84,3.84,0,0,1,3.85,80.75Z"/><path class="cls-1" d="M59.63,43.19a3.85,3.85,0,0,1-3.84-3.85V3.85A3.84,3.84,0,0,1,59.63,0h39.1a3.84,3.84,0,0,1,3.84,3.85V38.14A3.85,3.85,0,0,1,98.73,42H75.49a3.86,3.86,0,0,1-3.85-3.85V20.9a3.85,3.85,0,0,1,3.85-3.85h9.69a3.85,3.85,0,0,1,0,7.7H79.34v9.54H94.88V7.7H63.48V39.34A3.85,3.85,0,0,1,59.63,43.19Z"/><path class="cls-1" d="M79.18,97.51a3.85,3.85,0,0,1,0-7.7,15.72,15.72,0,0,0,15.7-15.7v-36a3.85,3.85,0,1,1,7.69,0v36A23.42,23.42,0,0,1,79.18,97.51Z"/><path class="cls-1" d="M70.31,56H31.86a3.85,3.85,0,1,1,0-7.7H70.31a3.85,3.85,0,0,1,0,7.7Z"/><path class="cls-1" d="M77.71,73.84H22.46a3.85,3.85,0,0,1,0-7.7H77.71a3.85,3.85,0,1,1,0,7.7Z"/><path class="cls-1" d="M3.85,111.92a3.85,3.85,0,0,1-2.72-6.57L38.27,68.21V52.15a3.85,3.85,0,1,1,7.69,0V69.8a3.84,3.84,0,0,1-1.12,2.72L6.57,110.8A3.84,3.84,0,0,1,3.85,111.92Z"/><path class="cls-1" d="M59,86.86A3.86,3.86,0,0,1,55.19,83V52.15a3.85,3.85,0,0,1,7.7,0V83A3.85,3.85,0,0,1,59,86.86Z"/><path class="cls-1" d="M152.19,39.35a18.91,18.91,0,0,1-13.46-5.58,3.85,3.85,0,0,1,5.44-5.44,11.64,11.64,0,0,0,16.05,0,11.35,11.35,0,0,0-16.05-16,3.85,3.85,0,0,1-5.44-5.44,19,19,0,1,1,13.46,32.51Z"/><path class="cls-1" d="M210.7,39.35a19,19,0,1,1,19-19A19.07,19.07,0,0,1,210.7,39.35ZM210.7,9A11.35,11.35,0,1,0,222.05,20.3,11.36,11.36,0,0,0,210.7,9Z"/><path class="cls-1" d="M152.19,103a19,19,0,1,1,19.05-19A19.07,19.07,0,0,1,152.19,103Zm0-30.39A11.35,11.35,0,1,0,163.54,84,11.36,11.36,0,0,0,152.19,72.65Z"/><path class="cls-1" d="M210.7,103a19,19,0,1,1,19-19A19.06,19.06,0,0,1,210.7,103Zm0-30.39A11.35,11.35,0,1,0,222.05,84,11.36,11.36,0,0,0,210.7,72.65Z"/><path class="cls-1" d="M230.63,53H130.36a3.85,3.85,0,0,1,0-7.69H230.63a3.85,3.85,0,1,1,0,7.69Z"/><path class="cls-1" d="M158.06,61.75a3.85,3.85,0,0,1-2.72-6.57l25.1-25.1a3.85,3.85,0,1,1,5.44,5.44l-25.1,25.1A3.83,3.83,0,0,1,158.06,61.75Z"/><path class="cls-1" d="M199.38,60.84a3.83,3.83,0,0,1-2.72-1.13l-7.09-7.09A3.85,3.85,0,0,1,195,47.18l7.09,7.09a3.85,3.85,0,0,1-2.72,6.57Z"/><path class="cls-1" d="M337.22,102.34H266.89A3.85,3.85,0,0,1,263,98.49V52a3.85,3.85,0,0,1,3.85-3.85H321a3.85,3.85,0,0,1,0,7.69H270.74V94.64h62.64V12.54H270.74V34.6a3.85,3.85,0,0,1-7.7,0V8.69a3.85,3.85,0,0,1,3.85-3.85h70.33a3.85,3.85,0,0,1,3.85,3.85v89.8A3.85,3.85,0,0,1,337.22,102.34Z"/><path class="cls-1" d="M450.62,78.64h-53.3a3.85,3.85,0,1,1,0-7.7h49.46V48.17H396.52a3.85,3.85,0,1,1,0-7.7h54.1a3.85,3.85,0,0,1,3.85,3.85V74.79A3.85,3.85,0,0,1,450.62,78.64Z"/><path class="cls-1" d="M415.14,102.49a23.42,23.42,0,0,1-23.39-23.4V59.81A3.85,3.85,0,0,1,395.59,56h42.23a3.85,3.85,0,1,1,0,7.7H399.44V79.09a15.71,15.71,0,0,0,15.7,15.7,3.85,3.85,0,1,1,0,7.7Z"/><path class="cls-1" d="M469.81,126.18a3.83,3.83,0,0,1-2.72-1.13L419.54,77.51A3.85,3.85,0,1,1,425,72.07l47.54,47.54a3.85,3.85,0,0,1-2.72,6.57Z"/><path class="cls-1" d="M447.76,103.66A3.86,3.86,0,0,1,445,97.09l16-16a3.85,3.85,0,0,1,5.44,5.44l-16,16A3.87,3.87,0,0,1,447.76,103.66Z"/><path class="cls-1" d="M472.8,49.38a3.85,3.85,0,0,1-2.39-.84L423.29,11.12,376.16,48.54a3.85,3.85,0,0,1-4.78-6L420.89,3.2a3.83,3.83,0,0,1,4.79,0L475.2,42.51a3.85,3.85,0,0,1-2.4,6.87Z"/><path class="cls-1" d="M428.74,33.72H417.83a3.85,3.85,0,1,1,0-7.7h10.91a3.85,3.85,0,0,1,0,7.7Z"/><path class="cls-1" d="M48.88,153.09c1.47,0,2,.4,2,2.08,0,5.52-2.26,9.53-7.17,12.39a1.68,1.68,0,0,1-.85.26,1.56,1.56,0,0,1-1.39-1.51,1.18,1.18,0,0,1,.56-1c3.75-2.21,5.83-5.09,5.83-9.2,0-.4-.14-.47-.61-.47H42.93c-.63,0-1-.52-1-1.25s.4-1.28,1-1.28Zm8.9-.94c0-.66.61-1.06,1.41-1.06s1.49.4,1.49,1.06v19.71c0,.82-.61,1.18-1.49,1.18s-1.41-.36-1.41-1.18V161.45H55.63v10c0,.8-.61,1.15-1.44,1.15s-1.46-.35-1.46-1.15V152.57c0-.68.61-1.06,1.46-1.06s1.44.38,1.44,1.06v6.26h2.15Z"/><path class="cls-1" d="M180.23,152.88c1.72,0,2.5.21,2.5,2.08,0,6.16-3.14,10.38-8.92,12.86a1.78,1.78,0,0,1-.73.17,1.52,1.52,0,0,1-1.4-1.59,1.13,1.13,0,0,1,.59-1.06c4.46-1.88,7.3-4.84,7.3-9.32,0-.45-.12-.57-.64-.57H173.1c-.66,0-1.09-.52-1.09-1.3a1.14,1.14,0,0,1,1.09-1.27Zm6.08-.66c0-.73.64-1.13,1.51-1.13s1.49.4,1.49,1.13v19.59c0,.85-.64,1.23-1.49,1.23s-1.51-.38-1.51-1.23Z"/><path class="cls-1" d="M298.56,151.77c3.5,0,5.81,2.17,5.81,5s-2.31,5.05-5.81,5.05-5.8-2.15-5.8-5.05,2.31-5,5.8-5m0,7.72a2.68,2.68,0,1,0-2.92-2.69,2.67,2.67,0,0,0,2.92,2.69m11.83,11.73c.66,0,1,.54,1,1.23s-.3,1.27-1,1.27H298.07c-1.56,0-2.1-.61-2.1-2.08v-2.5c0-1.23.49-1.77,1.86-1.77h9c.43,0,.5-.09.5-.5v-.63c0-.38-.05-.47-.5-.47h-10c-.66,0-1-.52-1-1.23s.31-1.23,1-1.23h11.73c1.51,0,1.94.61,1.94,1.87v2.47c0,1.37-.52,1.94-2,1.94H299.6c-.44,0-.49.07-.49.42v.71c0,.43.05.5.47.5Zm-2.88-19c0-.71.71-1.11,1.51-1.11s1.49.4,1.49,1.11v9c0,.85-.64,1.23-1.49,1.23s-1.51-.38-1.51-1.23Z"/><path class="cls-1" d="M422.63,152.74v1.32a6.46,6.46,0,0,0,4.32,6.42,1.18,1.18,0,0,1,.51,1.7,1.3,1.3,0,0,1-1.83.73,8.15,8.15,0,0,1-4.49-4.11,8.27,8.27,0,0,1-4.65,4.56,1.31,1.31,0,0,1-1.77-.69,1.19,1.19,0,0,1,.47-1.79,6.86,6.86,0,0,0,4.34-6.7v-1.44c0-.71.74-1.07,1.52-1.07s1.58.36,1.58,1.07m-3.94,12.2h11.7c1.58,0,2.24.49,2.24,2.17v5.57c0,.71-.73,1.09-1.53,1.09s-1.56-.38-1.56-1.09v-4.74c0-.43-.07-.48-.49-.48H418.69c-.71,0-1-.54-1-1.27s.31-1.25,1-1.25m13.94-12.74v10.66c0,.88-.63,1.23-1.48,1.23s-1.49-.35-1.49-1.23V152.2c0-.73.68-1.13,1.49-1.13s1.48.4,1.48,1.13"/></g></g></svg>