<svg xmlns="http://www.w3.org/2000/svg" viewBox="0 0 228.61 308.52"><defs><style>.cls-1{fill:#e8382f;}.cls-2{fill:#fff;opacity:0.5;}.cls-3{fill:#003548;}</style></defs><title>support_logo</title><g id="레이어_2" data-name="레이어 2"><g id="레이어_1-2" data-name="레이어 1"><circle class="cls-1" cx="114.31" cy="91.91" r="91.91"/><path class="cls-1" d="M64.3,149.41l10.46-4.08c42.93-16.77,86.54-33.81,131.37-49.69.05-1.24.09-2.48.09-3.73a93.65,93.65,0,0,0-.75-11.79c-44,15.72-86.82,32.58-128.93,49.28A92.21,92.21,0,0,1,64.3,149.41Z"/><path class="cls-1" d="M60.49,166.42a91.76,91.76,0,0,0,15.6,9.1l12.41-4.7c35.86-13.58,72.2-27.33,109.29-40.43a91.38,91.38,0,0,0,6.09-17.8c-41.58,14.68-82.17,30.29-122.16,45.67Z"/><path class="cls-1" d="M76.36,175.64a91.42,91.42,0,0,0,22.07,6.81c28.48-10.62,57.27-21.32,86.48-31.7a92.45,92.45,0,0,0,12.76-20.09c-37,13.08-73.3,26.8-109.1,40.36Z"/><path class="cls-1" d="M64,149.74a92,92,0,0,1-10.58,11c2.19,1.93,4.47,3.77,6.84,5.49l21.36-8.21c40-15.4,80.66-31,122.28-45.71a92.33,92.33,0,0,0,2.2-16.49c-44.81,15.88-88.39,32.9-131.3,49.66Z"/><path class="cls-1" d="M57.88,27.21Q89,13.62,120.81.23C118.66.08,116.5,0,114.31,0A91.54,91.54,0,0,0,53.45,23Q55.73,25,57.88,27.21Z"/><path class="cls-1" d="M75.15,51.45c29.26-12.4,58.95-24.73,89.28-36.59a91.53,91.53,0,0,0-17.6-8.93C120,16.72,93.73,27.83,67.76,39A91.4,91.4,0,0,1,75.15,51.45Z"/><path class="cls-1" d="M67.64,38.83c25.91-11.15,52.16-22.25,78.9-33A91.74,91.74,0,0,0,121.29.26Q89.25,13.64,58,27.37A92.43,92.43,0,0,1,67.64,38.83Z"/><path class="cls-1" d="M84.51,91.91c0,1,0,1.94-.05,2.91C121.12,79.9,158.38,65,196.63,51a93,93,0,0,0-7.85-13C153,51.39,118.06,65.49,83.7,79.66A93.46,93.46,0,0,1,84.51,91.91Z"/><path class="cls-1" d="M83.67,79.44c34.33-14.15,69.21-28.23,105-41.58a92.51,92.51,0,0,0-10.4-12C145,38.56,112.54,51.84,80.56,65.2A92,92,0,0,1,83.67,79.44Z"/><path class="cls-1" d="M76.66,129.12c42.06-16.67,84.81-33.51,128.78-49.21a91.3,91.3,0,0,0-3.16-14.67C161.38,80,121.57,95.77,82.41,111.51A91.41,91.41,0,0,1,76.66,129.12Z"/><path class="cls-1" d="M82.46,111.26C121.59,95.54,161.36,79.78,202.22,65a90.75,90.75,0,0,0-5.5-13.83c-38.28,14-75.57,28.92-112.27,43.85A91.06,91.06,0,0,1,82.46,111.26Z"/><path class="cls-1" d="M80.5,65c32-13.35,64.38-26.61,97.58-39.27A92.76,92.76,0,0,0,164.64,15c-30.37,11.88-60.1,24.23-89.4,36.64A90.89,90.89,0,0,1,80.5,65Z"/><path class="cls-1" d="M114.31,183.82a91.72,91.72,0,0,0,70.33-32.75c-29,10.3-57.53,20.92-85.79,31.45A92.6,92.6,0,0,0,114.31,183.82Z"/><path class="cls-2" d="M58,27.37Q89.29,13.71,121.29.26l-.48,0q-31.87,13.32-62.93,27Z"/><path class="cls-2" d="M67.76,39c26-11.18,52.27-22.29,79.07-33.08l-.29-.11c-26.74,10.76-53,21.86-78.9,33Z"/><path class="cls-2" d="M75.24,51.64c29.3-12.41,59-24.76,89.4-36.64l-.21-.14c-30.33,11.86-60,24.19-89.28,36.59Z"/><path class="cls-2" d="M80.5,65l.06.2c32-13.36,64.45-26.64,97.69-39.3l-.17-.17C144.88,38.39,112.45,51.65,80.5,65Z"/><path class="cls-2" d="M83.7,79.66C118.06,65.49,153,51.39,188.78,38l-.13-.18C152.88,51.21,118,65.29,83.67,79.44Z"/><path class="cls-2" d="M84.45,95.05c36.7-14.93,74-29.83,112.27-43.85l-.09-.19C158.38,65,121.12,79.9,84.46,94.82,84.46,94.9,84.45,95,84.45,95.05Z"/><path class="cls-2" d="M82.41,111.51c39.16-15.74,79-31.51,119.87-46.27l-.06-.21c-40.86,14.75-80.63,30.51-119.76,46.23A2.21,2.21,0,0,1,82.41,111.51Z"/><path class="cls-2" d="M76.54,129.4c42.11-16.7,84.91-33.56,128.93-49.28l0-.21c-44,15.7-86.72,32.54-128.78,49.21Z"/><path class="cls-2" d="M64.3,149.41l-.27.33,10.8-4.22c42.91-16.76,86.49-33.78,131.3-49.66v-.22c-44.83,15.88-88.44,32.92-131.37,49.69Z"/><path class="cls-2" d="M60.29,166.27l.2.15,21.23-8.16c40-15.38,80.58-31,122.16-45.67,0-.08,0-.16.05-.24C162.31,127,121.68,142.66,81.65,158.06Z"/><path class="cls-2" d="M76.09,175.52l.27.12L88.57,171c35.8-13.56,72.08-27.28,109.1-40.36l.12-.27c-37.09,13.1-73.43,26.85-109.29,40.43Z"/><path class="cls-2" d="M98.85,182.52c28.26-10.53,56.81-21.15,85.79-31.45l.27-.32c-29.21,10.38-58,21.08-86.48,31.7Z"/><path class="cls-3" d="M64,149.74l.27-.33a92.21,92.21,0,0,0,12.24-20l.12-.28a91.41,91.41,0,0,0,5.75-17.61,2.21,2.21,0,0,0,0-.25,91.06,91.06,0,0,0,2-16.21c0-.08,0-.15,0-.23,0-1,.05-1.94.05-2.91a93.46,93.46,0,0,0-.81-12.25l0-.22A92,92,0,0,0,80.56,65.2L80.5,65a90.89,90.89,0,0,0-5.26-13.36l-.09-.19A91.4,91.4,0,0,0,67.76,39l-.12-.18A92.43,92.43,0,0,0,58,27.37l-.15-.16Q55.74,25,53.45,23a91.9,91.9,0,0,0,0,137.74A92,92,0,0,0,64,149.74Z"/><path class="cls-3" d="M1.85,263.91A1.85,1.85,0,0,1,0,262.06V227a1.85,1.85,0,0,1,1.85-1.85H20.6A1.84,1.84,0,0,1,22.44,227v16.44a1.84,1.84,0,0,1-1.84,1.85H9.45a1.84,1.84,0,0,1-1.84-1.85V235.2a1.84,1.84,0,0,1,1.84-1.84H14.1a1.85,1.85,0,0,1,0,3.69H11.3v4.58h7.45V228.87H3.69v33.19A1.85,1.85,0,0,1,1.85,263.91Z"/><path class="cls-3" d="M28.6,245.89a1.84,1.84,0,0,1-1.84-1.84V227a1.84,1.84,0,0,1,1.84-1.85H47.35A1.85,1.85,0,0,1,49.2,227v16.44a1.85,1.85,0,0,1-1.85,1.85H36.21a1.85,1.85,0,0,1-1.85-1.85V235.2a1.84,1.84,0,0,1,1.85-1.84h4.64a1.85,1.85,0,1,1,0,3.69h-2.8v4.58h7.46V228.87H30.45v15.18A1.84,1.84,0,0,1,28.6,245.89Z"/><path class="cls-3" d="M38,272a1.85,1.85,0,0,1,0-3.7,7.53,7.53,0,0,0,7.53-7.53V243.47a1.85,1.85,0,0,1,3.69,0v17.25A11.24,11.24,0,0,1,38,272Z"/><path class="cls-3" d="M33.72,252H15.28a1.85,1.85,0,0,1,0-3.69H33.72a1.85,1.85,0,1,1,0,3.69Z"/><path class="cls-3" d="M37.27,260.6H10.77a1.85,1.85,0,0,1,0-3.7h26.5a1.85,1.85,0,0,1,0,3.7Z"/><path class="cls-3" d="M1.85,278.86a1.85,1.85,0,0,1-1.31-3.15l17.82-17.82v-7.7a1.85,1.85,0,0,1,3.69,0v8.47a1.85,1.85,0,0,1-.54,1.3L3.15,278.32A1.83,1.83,0,0,1,1.85,278.86Z"/><path class="cls-3" d="M28.32,266.84A1.85,1.85,0,0,1,26.47,265v-14.8a1.85,1.85,0,0,1,3.69,0V265A1.84,1.84,0,0,1,28.32,266.84Z"/><path class="cls-3" d="M73,244.05a9.08,9.08,0,0,1-6.46-2.67,1.85,1.85,0,1,1,2.61-2.61,5.58,5.58,0,0,0,7.69,0,5.44,5.44,0,0,0-7.69-7.7,1.85,1.85,0,0,1-2.61-2.61A9.13,9.13,0,1,1,73,244.05Z"/><path class="cls-3" d="M101.06,244.05a9.14,9.14,0,1,1,9.13-9.13A9.14,9.14,0,0,1,101.06,244.05Zm0-14.57a5.44,5.44,0,1,0,5.44,5.44A5.45,5.45,0,0,0,101.06,229.48Z"/><path class="cls-3" d="M73,274.6a9.14,9.14,0,1,1,9.13-9.13A9.15,9.15,0,0,1,73,274.6ZM73,260a5.45,5.45,0,1,0,5.44,5.45A5.46,5.46,0,0,0,73,260Z"/><path class="cls-3" d="M101.06,274.6a9.14,9.14,0,1,1,9.13-9.13A9.14,9.14,0,0,1,101.06,274.6Zm0-14.58a5.45,5.45,0,1,0,5.44,5.45A5.45,5.45,0,0,0,101.06,260Z"/><path class="cls-3" d="M110.62,250.59H62.53a1.85,1.85,0,1,1,0-3.69h48.09a1.85,1.85,0,0,1,0,3.69Z"/><path class="cls-3" d="M75.81,254.8a1.83,1.83,0,0,1-1.3-.54,1.86,1.86,0,0,1,0-2.62l12-12a1.85,1.85,0,0,1,2.61,2.61l-12,12A1.86,1.86,0,0,1,75.81,254.8Z"/><path class="cls-3" d="M95.63,254.36a1.84,1.84,0,0,1-1.31-.54l-3.4-3.4a1.85,1.85,0,0,1,2.61-2.61l3.4,3.4a1.85,1.85,0,0,1-1.3,3.15Z"/><path class="cls-3" d="M161.74,274.27H128a1.85,1.85,0,0,1-1.85-1.85V250.09a1.84,1.84,0,0,1,1.85-1.84h26a1.85,1.85,0,0,1,0,3.69H129.85v18.63H159.9V231.19H129.85v10.59a1.85,1.85,0,0,1-3.69,0V229.35A1.85,1.85,0,0,1,128,227.5h33.73a1.85,1.85,0,0,1,1.85,1.85v43.07A1.85,1.85,0,0,1,161.74,274.27Z"/><path class="cls-3" d="M216.13,262.9H190.56a1.85,1.85,0,0,1,0-3.7h23.73V248.28H190.18a1.85,1.85,0,0,1,0-3.69h25.95a1.85,1.85,0,0,1,1.85,1.85v14.61A1.85,1.85,0,0,1,216.13,262.9Z"/><path class="cls-3" d="M199.11,274.33a11.23,11.23,0,0,1-11.22-11.22v-9.24a1.85,1.85,0,0,1,1.85-1.85H210a1.85,1.85,0,1,1,0,3.69H191.58v7.4a7.54,7.54,0,0,0,7.53,7.53,1.85,1.85,0,1,1,0,3.69Z"/><path class="cls-3" d="M225.33,285.7a1.83,1.83,0,0,1-1.3-.54l-22.81-22.81a1.85,1.85,0,0,1,2.61-2.61l22.81,22.81a1.85,1.85,0,0,1-1.31,3.15Z"/><path class="cls-3" d="M214.75,274.9a1.86,1.86,0,0,1-1.3-3.16l7.68-7.68a1.85,1.85,0,0,1,2.61,2.61l-7.68,7.68A1.85,1.85,0,0,1,214.75,274.9Z"/><path class="cls-3" d="M226.77,248.86a1.83,1.83,0,0,1-1.15-.4l-22.6-18-22.6,18a1.85,1.85,0,1,1-2.3-2.89l23.75-18.86a1.86,1.86,0,0,1,2.3,0l23.75,18.86a1.85,1.85,0,0,1-1.15,3.29Z"/><path class="cls-3" d="M205.64,241.35H200.4a1.85,1.85,0,0,1,0-3.69h5.24a1.85,1.85,0,0,1,0,3.69Z"/><path class="cls-3" d="M23.44,298.61c.71,0,1,.19,1,1A6.39,6.39,0,0,1,21,305.55a.92.92,0,0,1-.41.12.76.76,0,0,1-.67-.73.55.55,0,0,1,.27-.48A4.93,4.93,0,0,0,23,300c0-.19-.07-.22-.3-.22H20.59c-.3,0-.5-.25-.5-.6s.2-.61.5-.61Zm4.27-.46c0-.31.3-.51.68-.51s.71.2.71.51v9.46c0,.39-.29.56-.71.56s-.68-.17-.68-.56v-5h-1v4.78c0,.39-.29.55-.69.55s-.7-.16-.7-.55v-9c0-.33.29-.51.7-.51s.69.18.69.51v3h1Z"/><path class="cls-3" d="M86.44,298.51c.83,0,1.2.1,1.2,1a6.32,6.32,0,0,1-4.28,6.17.8.8,0,0,1-.35.08.73.73,0,0,1-.67-.76.55.55,0,0,1,.29-.51c2.14-.9,3.49-2.32,3.49-4.47,0-.21-.05-.27-.3-.27H83c-.31,0-.52-.25-.52-.62a.55.55,0,0,1,.52-.61Zm2.92-.32c0-.35.31-.55.73-.55s.71.2.71.55v9.39c0,.41-.31.59-.71.59s-.73-.18-.73-.59Z"/><path class="cls-3" d="M143.2,298a2.45,2.45,0,1,1-2.78,2.42A2.51,2.51,0,0,1,143.2,298m0,3.7a1.28,1.28,0,1,0-1.4-1.29,1.27,1.27,0,0,0,1.4,1.29m5.67,5.63c.32,0,.46.26.46.59s-.14.61-.46.61H143c-.75,0-1-.29-1-1v-1.2c0-.58.24-.84.9-.84h4.33c.21,0,.24,0,.24-.24v-.31c0-.18,0-.22-.24-.22h-4.81c-.31,0-.46-.25-.46-.59s.15-.59.46-.59H148c.72,0,.93.29.93.89v1.19c0,.66-.25.93-1,.93H143.7c-.22,0-.24,0-.24.2v.34c0,.21,0,.24.23.24Zm-1.38-9.12c0-.34.34-.54.72-.54s.72.2.72.54v4.33c0,.41-.31.59-.72.59s-.72-.18-.72-.59Z"/><path class="cls-3" d="M202.7,298.44v.63a3.1,3.1,0,0,0,2.07,3.08.56.56,0,0,1,.25.81.63.63,0,0,1-.88.36,4,4,0,0,1-2.15-2,4,4,0,0,1-2.23,2.18.62.62,0,0,1-.85-.33.57.57,0,0,1,.23-.86,3.28,3.28,0,0,0,2.08-3.21v-.69c0-.34.35-.51.72-.51s.76.17.76.51m-1.89,5.85h5.62c.76,0,1.07.24,1.07,1V308c0,.34-.35.52-.73.52s-.75-.18-.75-.52v-2.27c0-.21,0-.23-.24-.23h-5c-.34,0-.48-.26-.48-.61s.14-.6.48-.6m6.69-6.11v5.11c0,.42-.3.59-.71.59s-.71-.17-.71-.59v-5.11c0-.35.32-.55.71-.55s.71.2.71.55"/></g></g></svg>