<!-- Generator: Adobe Illustrator 23.0.0, SVG Export Plug-In  -->
<svg version="1.1" xmlns="http://www.w3.org/2000/svg" xmlns:xlink="http://www.w3.org/1999/xlink" x="0px" y="0px"
	 width="2144.7px" height="271px" viewBox="0 0 2144.7 271" style="enable-background:new 0 0 2144.7 271;" xml:space="preserve">
<style type="text/css">
	.st0{fill:#FFFFFF;stroke:#E8382F;stroke-miterlimit:10;}
</style>
<defs>
</defs>
<g>
	<g>
		<g>
			<g>
				<g>
					<circle class="st0" cx="239.1" cy="117.9" r="117.4"/>
					
						<ellipse transform="matrix(0.7071 -0.7071 0.7071 0.7071 -13.3519 203.6088)" class="st0" cx="239.1" cy="117.9" rx="96.9" ry="96.9"/>
					
						<ellipse transform="matrix(0.9239 -0.3827 0.3827 0.9239 -26.926 100.4765)" class="st0" cx="239.1" cy="117.9" rx="76.3" ry="76.3"/>
					
						<ellipse transform="matrix(0.9239 -0.3827 0.3827 0.9239 -26.926 100.4766)" class="st0" cx="239.1" cy="117.9" rx="55.7" ry="55.7"/>
					<path class="st0" d="M239.1,153.1c-19.4,0-35.2-15.8-35.2-35.2s15.8-35.2,35.2-35.2s35.2,15.8,35.2,35.2
						S258.5,153.1,239.1,153.1z"/>
				</g>
			</g>
			<g>
				<g>
					<circle class="st0" cx="477.7" cy="117.9" r="117.4"/>
					
						<ellipse transform="matrix(0.7071 -0.7071 0.7071 0.7071 56.533 372.3258)" class="st0" cx="477.7" cy="117.9" rx="96.9" ry="96.9"/>
					
						<ellipse transform="matrix(0.9239 -0.3827 0.3827 0.9239 -8.7635 191.7855)" class="st0" cx="477.7" cy="117.9" rx="76.3" ry="76.3"/>
					
						<ellipse transform="matrix(0.9239 -0.3827 0.3827 0.9239 -8.7634 191.7856)" class="st0" cx="477.7" cy="117.9" rx="55.7" ry="55.7"/>
					<path class="st0" d="M477.7,153.1c-19.4,0-35.2-15.8-35.2-35.2s15.8-35.2,35.2-35.2c19.4,0,35.2,15.8,35.2,35.2
						S497.1,153.1,477.7,153.1z"/>
				</g>
			</g>
			<g>
				<g>
					<circle class="st0" cx="716.3" cy="117.9" r="117.4"/>
					
						<ellipse transform="matrix(0.7071 -0.7071 0.7071 0.7071 126.4179 541.0428)" class="st0" cx="716.3" cy="117.9" rx="96.9" ry="96.9"/>
					
						<ellipse transform="matrix(0.9239 -0.3827 0.3827 0.9239 9.399 283.0945)" class="st0" cx="716.3" cy="117.9" rx="76.3" ry="76.3"/>
					
						<ellipse transform="matrix(0.9239 -0.3827 0.3827 0.9239 9.3991 283.0947)" class="st0" cx="716.3" cy="117.9" rx="55.7" ry="55.7"/>
					<path class="st0" d="M716.3,153.1c-19.4,0-35.2-15.8-35.2-35.2s15.8-35.2,35.2-35.2c19.4,0,35.2,15.8,35.2,35.2
						S735.7,153.1,716.3,153.1z"/>
				</g>
			</g>
			<g>
				<g>
					<circle class="st0" cx="954.9" cy="117.9" r="117.4"/>
					
						<ellipse transform="matrix(0.7071 -0.7071 0.7071 0.7071 196.3027 709.7598)" class="st0" cx="954.9" cy="117.9" rx="96.9" ry="96.9"/>
					
						<ellipse transform="matrix(0.9239 -0.3827 0.3827 0.9239 27.5615 374.4035)" class="st0" cx="954.9" cy="117.9" rx="76.3" ry="76.3"/>
					
						<ellipse transform="matrix(0.9239 -0.3827 0.3827 0.9239 27.5616 374.4038)" class="st0" cx="954.9" cy="117.9" rx="55.7" ry="55.7"/>
					<path class="st0" d="M954.9,153.1c-19.4,0-35.2-15.8-35.2-35.2s15.8-35.2,35.2-35.2c19.4,0,35.2,15.8,35.2,35.2
						S974.3,153.1,954.9,153.1z"/>
				</g>
			</g>
			<g>
				<g>
					<circle class="st0" cx="1193.5" cy="117.9" r="117.4"/>
					
						<ellipse transform="matrix(0.7071 -0.7071 0.7071 0.7071 266.1876 878.4768)" class="st0" cx="1193.5" cy="117.9" rx="96.9" ry="96.9"/>
					
						<ellipse transform="matrix(0.9239 -0.3827 0.3827 0.9239 45.724 465.7125)" class="st0" cx="1193.5" cy="117.9" rx="76.3" ry="76.3"/>
					
						<ellipse transform="matrix(0.9239 -0.3827 0.3827 0.9239 45.7241 465.7128)" class="st0" cx="1193.5" cy="117.9" rx="55.7" ry="55.7"/>
					<path class="st0" d="M1193.5,153.1c-19.4,0-35.2-15.8-35.2-35.2s15.8-35.2,35.2-35.2c19.4,0,35.2,15.8,35.2,35.2
						S1212.9,153.1,1193.5,153.1z"/>
				</g>
			</g>
			<g>
				<g>
					<circle class="st0" cx="1432.1" cy="117.9" r="117.4"/>
					
						<ellipse transform="matrix(0.7071 -0.7071 0.7071 0.7071 336.0725 1047.1938)" class="st0" cx="1432.1" cy="117.9" rx="96.9" ry="96.9"/>
					
						<ellipse transform="matrix(0.9239 -0.3827 0.3827 0.9239 63.8865 557.0215)" class="st0" cx="1432.1" cy="117.9" rx="76.3" ry="76.3"/>
					
						<ellipse transform="matrix(0.9239 -0.3827 0.3827 0.9239 63.8867 557.0219)" class="st0" cx="1432.1" cy="117.9" rx="55.7" ry="55.7"/>
					<path class="st0" d="M1432.1,153.1c-19.4,0-35.2-15.8-35.2-35.2s15.8-35.2,35.2-35.2s35.2,15.8,35.2,35.2
						S1451.5,153.1,1432.1,153.1z"/>
				</g>
			</g>
			<g>
				<g>
					<circle class="st0" cx="1670.7" cy="117.9" r="117.4"/>
					
						<ellipse transform="matrix(0.7071 -0.7071 0.7071 0.7071 405.9573 1215.9108)" class="st0" cx="1670.7" cy="117.9" rx="96.9" ry="96.9"/>
					
						<ellipse transform="matrix(0.9239 -0.3827 0.3827 0.9239 82.0491 648.3309)" class="st0" cx="1670.7" cy="117.9" rx="76.3" ry="76.3"/>
					
						<ellipse transform="matrix(0.9239 -0.3827 0.3827 0.9239 82.0493 648.3313)" class="st0" cx="1670.7" cy="117.9" rx="55.7" ry="55.7"/>
					<path class="st0" d="M1670.7,153.1c-19.4,0-35.2-15.8-35.2-35.2s15.8-35.2,35.2-35.2c19.4,0,35.2,15.8,35.2,35.2
						S1690.1,153.1,1670.7,153.1z"/>
				</g>
			</g>
			<g>
				<g>
					<circle class="st0" cx="1909.3" cy="117.9" r="117.4"/>
					
						<ellipse transform="matrix(0.7071 -0.7071 0.7071 0.7071 475.8422 1384.6278)" class="st0" cx="1909.3" cy="117.9" rx="96.9" ry="96.9"/>
					
						<ellipse transform="matrix(0.9239 -0.3827 0.3827 0.9239 100.2115 739.6398)" class="st0" cx="1909.3" cy="117.9" rx="76.3" ry="76.3"/>
					
						<ellipse transform="matrix(0.9239 -0.3827 0.3827 0.9239 100.2118 739.6403)" class="st0" cx="1909.3" cy="117.9" rx="55.7" ry="55.7"/>
					<path class="st0" d="M1909.3,153.1c-19.4,0-35.2-15.8-35.2-35.2s15.8-35.2,35.2-35.2s35.2,15.8,35.2,35.2
						S1928.7,153.1,1909.3,153.1z"/>
				</g>
			</g>
		</g>
	</g>
	<g>
		<g>
			<g>
				<g>
					<circle class="st0" cx="117.9" cy="153.1" r="117.4"/>
					
						<ellipse transform="matrix(0.7071 -0.7071 0.7071 0.7071 -73.7159 128.2236)" class="st0" cx="117.9" cy="153.1" rx="96.9" ry="96.9"/>
					
						<ellipse transform="matrix(0.9239 -0.3827 0.3827 0.9239 -49.6105 56.7803)" class="st0" cx="117.9" cy="153.1" rx="76.3" ry="76.3"/>
					
						<ellipse transform="matrix(0.9239 -0.3827 0.3827 0.9239 -49.6105 56.7804)" class="st0" cx="117.9" cy="153.1" rx="55.7" ry="55.7"/>
					<path class="st0" d="M117.9,188.3c-19.4,0-35.2-15.8-35.2-35.2s15.8-35.2,35.2-35.2s35.2,15.8,35.2,35.2
						S137.3,188.3,117.9,188.3z"/>
				</g>
			</g>
			<g>
				<g>
					<circle class="st0" cx="356.5" cy="153.1" r="117.4"/>
					
						<ellipse transform="matrix(0.7071 -0.7071 0.7071 0.7071 -3.831 296.9406)" class="st0" cx="356.5" cy="153.1" rx="96.9" ry="96.9"/>
					
						<ellipse transform="matrix(0.9239 -0.3827 0.3827 0.9239 -31.448 148.0894)" class="st0" cx="356.5" cy="153.1" rx="76.3" ry="76.3"/>
					
						<ellipse transform="matrix(0.9239 -0.3827 0.3827 0.9239 -31.4479 148.0895)" class="st0" cx="356.5" cy="153.1" rx="55.7" ry="55.7"/>
					<path class="st0" d="M356.5,188.3c-19.4,0-35.2-15.8-35.2-35.2s15.8-35.2,35.2-35.2c19.4,0,35.2,15.8,35.2,35.2
						S375.9,188.3,356.5,188.3z"/>
				</g>
			</g>
			<g>
				<g>
					<circle class="st0" cx="595.1" cy="153.1" r="117.4"/>
					
						<ellipse transform="matrix(0.7071 -0.7071 0.7071 0.7071 66.0539 465.6577)" class="st0" cx="595.1" cy="153.1" rx="96.9" ry="96.9"/>
					
						<ellipse transform="matrix(0.9239 -0.3827 0.3827 0.9239 -13.2855 239.3984)" class="st0" cx="595.1" cy="153.1" rx="76.3" ry="76.3"/>
					
						<ellipse transform="matrix(0.9239 -0.3827 0.3827 0.9239 -13.2854 239.3986)" class="st0" cx="595.1" cy="153.1" rx="55.7" ry="55.7"/>
					<path class="st0" d="M595.1,188.3c-19.4,0-35.2-15.8-35.2-35.2s15.8-35.2,35.2-35.2c19.4,0,35.2,15.8,35.2,35.2
						S614.5,188.3,595.1,188.3z"/>
				</g>
			</g>
			<g>
				<g>
					<circle class="st0" cx="833.7" cy="153.1" r="117.4"/>
					
						<ellipse transform="matrix(0.7071 -0.7071 0.7071 0.7071 135.9388 634.3746)" class="st0" cx="833.7" cy="153.1" rx="96.9" ry="96.9"/>
					
						<ellipse transform="matrix(0.9239 -0.3827 0.3827 0.9239 4.877 330.7075)" class="st0" cx="833.7" cy="153.1" rx="76.3" ry="76.3"/>
					
						<ellipse transform="matrix(0.9239 -0.3827 0.3827 0.9239 4.8771 330.7077)" class="st0" cx="833.7" cy="153.1" rx="55.7" ry="55.7"/>
					<path class="st0" d="M833.7,188.3c-19.4,0-35.2-15.8-35.2-35.2s15.8-35.2,35.2-35.2c19.4,0,35.2,15.8,35.2,35.2
						S853.1,188.3,833.7,188.3z"/>
				</g>
			</g>
			<g>
				<g>
					<circle class="st0" cx="1072.3" cy="153.1" r="117.4"/>
					
						<ellipse transform="matrix(0.7071 -0.7071 0.7071 0.7071 205.8236 803.0917)" class="st0" cx="1072.3" cy="153.1" rx="96.9" ry="96.9"/>
					
						<ellipse transform="matrix(0.9239 -0.3827 0.3827 0.9239 23.0395 422.0165)" class="st0" cx="1072.3" cy="153.1" rx="76.3" ry="76.3"/>
					
						<ellipse transform="matrix(0.9239 -0.3827 0.3827 0.9239 23.0397 422.0168)" class="st0" cx="1072.3" cy="153.1" rx="55.7" ry="55.7"/>
					<path class="st0" d="M1072.3,188.3c-19.4,0-35.2-15.8-35.2-35.2s15.8-35.2,35.2-35.2s35.2,15.8,35.2,35.2
						S1091.7,188.3,1072.3,188.3z"/>
				</g>
			</g>
			<g>
				<g>
					<circle class="st0" cx="1310.9" cy="153.1" r="117.4"/>
					
						<ellipse transform="matrix(0.7071 -0.7071 0.7071 0.7071 275.7085 971.8087)" class="st0" cx="1310.9" cy="153.1" rx="96.9" ry="96.9"/>
					
						<ellipse transform="matrix(0.9239 -0.3827 0.3827 0.9239 41.202 513.3254)" class="st0" cx="1310.9" cy="153.1" rx="76.3" ry="76.3"/>
					
						<ellipse transform="matrix(0.9239 -0.3827 0.3827 0.9239 41.2022 513.3257)" class="st0" cx="1310.9" cy="153.1" rx="55.7" ry="55.7"/>
					<path class="st0" d="M1310.9,188.3c-19.4,0-35.2-15.8-35.2-35.2s15.8-35.2,35.2-35.2c19.4,0,35.2,15.8,35.2,35.2
						S1330.3,188.3,1310.9,188.3z"/>
				</g>
			</g>
			<g>
				<g>
					<circle class="st0" cx="1549.5" cy="153.1" r="117.4"/>
					
						<ellipse transform="matrix(0.7071 -0.7071 0.7071 0.7071 345.5934 1140.5256)" class="st0" cx="1549.5" cy="153.1" rx="96.9" ry="96.9"/>
					
						<ellipse transform="matrix(0.9239 -0.3827 0.3827 0.9239 59.3645 604.6346)" class="st0" cx="1549.5" cy="153.1" rx="76.3" ry="76.3"/>
					
						<ellipse transform="matrix(0.9239 -0.3827 0.3827 0.9239 59.3647 604.635)" class="st0" cx="1549.5" cy="153.1" rx="55.7" ry="55.7"/>
					<path class="st0" d="M1549.5,188.3c-19.4,0-35.2-15.8-35.2-35.2s15.8-35.2,35.2-35.2s35.2,15.8,35.2,35.2
						S1568.9,188.3,1549.5,188.3z"/>
				</g>
			</g>
			<g>
				<g>
					<circle class="st0" cx="1788.1" cy="153.1" r="117.4"/>
					
						<ellipse transform="matrix(0.7071 -0.7071 0.7071 0.7071 415.4782 1309.2427)" class="st0" cx="1788.1" cy="153.1" rx="96.9" ry="96.9"/>
					
						<ellipse transform="matrix(0.9239 -0.3827 0.3827 0.9239 77.5271 695.9438)" class="st0" cx="1788.1" cy="153.1" rx="76.3" ry="76.3"/>
					
						<ellipse transform="matrix(0.9239 -0.3827 0.3827 0.9239 77.5273 695.9442)" class="st0" cx="1788.1" cy="153.1" rx="55.7" ry="55.7"/>
					<path class="st0" d="M1788.1,188.3c-19.4,0-35.2-15.8-35.2-35.2s15.8-35.2,35.2-35.2c19.4,0,35.2,15.8,35.2,35.2
						S1807.5,188.3,1788.1,188.3z"/>
				</g>
			</g>
			<g>
				<g>
					<circle class="st0" cx="2026.7" cy="153.1" r="117.4"/>
					
						<ellipse transform="matrix(0.7071 -0.7071 0.7071 0.7071 485.3631 1477.9597)" class="st0" cx="2026.7" cy="153.1" rx="96.9" ry="96.9"/>
					
						<ellipse transform="matrix(0.9239 -0.3827 0.3827 0.9239 95.6895 787.2526)" class="st0" cx="2026.7" cy="153.1" rx="76.3" ry="76.3"/>
					
						<ellipse transform="matrix(0.9239 -0.3827 0.3827 0.9239 95.6898 787.2532)" class="st0" cx="2026.7" cy="153.1" rx="55.7" ry="55.7"/>
					<path class="st0" d="M2026.7,188.3c-19.4,0-35.2-15.8-35.2-35.2s15.8-35.2,35.2-35.2s35.2,15.8,35.2,35.2
						S2046.1,188.3,2026.7,188.3z"/>
				</g>
			</g>
		</g>
	</g>
</g>
</svg>
